<?xml version="1.0" encoding="UTF-8"?>
<!-- Created with Inkscape (http://www.inkscape.org/) -->
<svg width="500" height="500" version="1.1" viewBox="0 0 500 500" xml:space="preserve" xmlns="http://www.w3.org/2000/svg"><rect width="500" height="500" ry="100" fill="#500" stroke-linecap="round" stroke-linejoin="round" stroke-width="1.9994"/><g transform="matrix(.8 0 0 .8 46.523 52.938)"><g transform="matrix(1.1451 0 0 1.1451 -.031724 1.0189)"><path d="m180.46 435.78c-9.2561-3.0264-17.624-11.542-23.279-23.691-4.3404-9.3242-6.1468-17.045-6.7701-28.937-0.47803-9.1202 0.70392-23.341 2.052-24.689 0.24795-0.24795 2.3118 0.49855 4.5862 1.6589l4.1354 2.1097 14.752-11.447c16.391-12.719 18.144-15 22.199-28.883 1.6096-5.5108 2.7271-7.7488 3.8679-7.746 1.4164 4e-3 14.773 1.981 23.854 3.5317l3.25 0.55494 6e-3 9.7047c7e-3 11.596 1.0752 15.919 5.5926 22.626 1.871 2.7783 3.3985 5.9575 3.3943 7.0648-0.012 3.1956-5.5783 24.174-9.0277 34.023-11.421 32.611-30.592 50.01-48.612 44.118zm232.69-81.386c-11.228-11.606-18.525-26.033-35.019-69.242-5.3538-14.025-11.148-28.81-12.877-32.855s-3.1426-7.5012-3.1426-7.6802 1.4595 0.0931 3.2434 0.60471 4.9275 0.93019 6.9858 0.93019c4.3751 0 36.747-8.7644 38.385-10.393 0.91511-0.90943 3.3915-15.005 3.3869-19.278-2e-3 -1.9924-29.743-20.442-35.366-21.939-2.8241-0.75198-9.4577-1.3726-14.741-1.3791l-9.6065-0.0119-2.263-13.08c-1.2551-7.2546-1.8757-13.402-1.3935-13.804 0.47825-0.39767 4.2445-1.7596 8.3695-3.0266 9.3902-2.8841 16.856-7.051 19.823-11.063l2.2865-3.0926 3.9234 2.2051c4.8496 2.7256 13.04 10.653 17.093 16.544 15.373 22.344 26.202 63.635 29.849 113.82 3.0806 42.39-1.6674 79.5-10.172 79.5-1.4376 0-4.5436-2.3949-8.7647-6.7582zm-365.5-71.354c-19.65-2.8627-36.305-12.591-42.223-24.663-10.639-21.701 8.3817-43.092 50.246-56.509 16.307-5.2263 16.654-5.2632 21.195-2.2577 5.8243 3.8543 9.6156 4.6474 21.837 4.5682l11.095-0.0719 2.1548 12.331c1.1852 6.7823 2.1548 13.073 2.1548 13.98 0 1.1863-2.0338 2.2403-7.25 3.7571-14.369 4.1786-16.797 5.9638-28.895 21.249-6.0314 7.62-11.208 14.485-11.504 15.256-0.29577 0.77077 0.85248 3.8313 2.5517 6.8012l3.0894 5.3998-4.6355 0.63537c-5.7981 0.79472-12.136 0.64218-19.817-0.47698zm176.5-39.026c-27.05-4.4844-44.936-32.571-37.033-58.156 11.695-37.864 63.424-44.314 85.055-10.605 8.8804 13.839 9.1388 32.639 0.64782 47.128-6.2389 10.646-19.822 19.664-32.712 21.72-7.3621 1.174-8.3851 1.1685-15.957-0.0868zm92.598-129.42-9.8592-9.4727 5.6137-7.4585c7.3131-9.7163 9.6048-15.605 9.6048-24.682v-7.098l6.4305-8.615c11.038-14.788 17.736-20.078 32.918-26.001 15.767-6.1509 25.643-8.3492 35.727-7.9521 7.3582 0.28978 9.1652 0.72824 12.73 3.0888 6.512 4.312 8.7015 9.4323 8.6586 20.249-0.0408 10.277-2.1764 17.851-8.7403 31-8.2873 16.601-13.986 22.868-25.724 28.29-4.684 2.1636-7.5883 2.6515-19.575 3.2887-15.994 0.85015-19.562 2.0629-30.238 10.278-3.3192 2.5541-6.4066 4.6244-6.8609 4.6006-0.45428-0.0237-5.2626-4.3059-10.685-9.5158zm-67.141-32.537c-6.6-1.0424-12.562-2.1081-13.25-2.3681-0.88203-0.33359-1.2516-3.3521-1.2556-10.254-3e-3 -5.3798-0.49363-11.539-1.0901-13.688-0.91148-3.2828-21.214-33.594-22.501-33.594-2.2997 0-20.07 3.2883-20.597 3.8114-0.38176 0.37875-2.8339 8.4612-5.4493 17.961-4.6006 16.711-4.7179 17.475-3.6095 23.5 0.6301 3.4252 1.4411 7.2166 1.8022 8.4254 0.58157 1.9466-0.64064 1.5432-10.696-3.5303-6.2441-3.1504-21.68-10.199-34.302-15.663-40.83-17.676-57.176-27.004-68.462-39.068-7.2099-7.7075-7.553-9.9767-1.9242-12.729 6.2587-3.0597 15.572-4.0874 36.835-4.0643 76.389 0.083088 150.23 23.916 165.95 53.562l2.4542 4.6276-2.5863 4.8331c-1.4224 2.6582-3.6049 8.3206-4.8498 12.583s-2.7605 7.7048-3.3679 7.6495-6.5043-0.95343-13.104-1.9959z" fill="#fcfcfc"/><path d="m252.82 365.9c-9.6696-13.155-15.225-21.534-16.332-24.631-0.7772-2.1749-1.3106-8.4875-1.337-15.823l-0.0439-12.205-3.25-0.59358c-7.0153-1.2813-35.257-5.3233-35.5-5.0808-0.1415 0.1415-1.6501 4.9432-3.3524 10.67-1.7023 5.7273-4.0128 11.917-5.1344 13.754-1.762 2.8868-10.973 10.783-23.931 20.516l-3.6677 2.7548-12.396-6.2574 0.42148-16.177c0.48252-18.52 0.37371-18.192 10.472-31.579 3.5108-4.6544 6.2606-8.7707 6.1107-9.1472-0.4726-1.1872-26.515-25.951-27.291-25.951-0.40694 0-4.7612 2.9405-9.6762 6.5344-12.787 9.3503-13.954 9.6973-33.101 9.8426l-16.204 0.12297-5.8264-11.131 9.677-12.18c5.3224-6.6992 11.358-13.234 13.413-14.522 2.0549-1.2878 8.4271-3.768 14.16-5.5114s10.625-3.3711 10.871-3.6169-0.9576-8.4867-2.6743-18.313c-1.7167-9.8264-3.1212-18.24-3.1212-18.698s-5.0884-0.5411-11.307-0.1859c-15.246 0.87076-18.297-0.0643-34.27-10.503l-13.078-8.5465 1.9545-13.078 14.601-4.2554c17.144-4.9967 20.754-5.1115 33.521-1.0661 4.994 1.5824 10.077 3.1796 11.296 3.5492 2.0335 0.61661 2.9155-0.72499 10.704-16.283l8.4884-16.955-9.2657-6.1098c-13.311-8.7774-14.516-10.34-21.144-27.431l-5.7538-14.836 9.5316-9.6771 15.469 5.4205c9.646 3.38 16.677 6.4574 18.677 8.175 1.7644 1.515 6.064 6.692 9.5547 11.505 3.4907 4.8125 6.7202 8.75 7.1767 8.75 0.45644 0 8.2862-3.7125 17.4-8.25 14.216-7.078 16.504-8.5341 16.106-10.25-0.25477-1.1-2.0781-6.5-4.0518-12s-3.5931-11.456-3.5986-13.235c-9e-3 -2.8556 7.1368-30.076 8.4554-32.21 0.28043-0.45375 2.6529-1.1276 5.2722-1.4973 2.6193-0.36979 5.4965-0.88512 6.3939-1.1452 1.1826-0.34274 4.1616 3.119 10.827 12.581 5.0574 7.1799 9.6107 14.503 10.118 16.273 0.50774 1.7704 0.92317 8.4828 0.92317 14.916s0.3888 11.938 0.86399 12.232c1.2841 0.7936 35.123 5.7349 36.877 5.3849 0.95931-0.19147 2.68-4.1189 4.7321-10.801 1.7736-5.775 4.0852-11.905 5.1369-13.621 1.8764-3.0629 25.519-22.379 27.392-22.379 0.5248 0 3.4392 1.2187 6.4764 2.7083l5.5222 2.7083-0.022 15.542c-0.0258 18.288-0.34862 19.3-10.41 32.639l-6.5955 8.744 2.2638 2.4314c1.2451 1.3373 7.5481 7.383 14.007 13.435l11.743 11.004 8.8605-6.5973c13-9.6792 14.814-10.274 33.36-10.944l15.706-0.56735 3.1375 5.4838c1.7256 3.0161 2.8845 6.143 2.5753 6.9488-0.30919 0.80574-4.6604 6.641-9.6695 12.967-10.41 13.148-13.095 15.041-26.955 19.006-5.225 1.4948-9.8611 3.0505-10.303 3.4571-0.44139 0.40661 0.64458 8.9056 2.4133 18.887l3.2158 18.147 12.087 6e-3c6.6477 3e-3 13.804 0.48238 15.902 1.0651 2.0986 0.58276 9.8931 4.9223 17.321 9.6434 11.476 7.2942 13.43 8.8995 13.006 10.685-0.2746 1.1556-0.79349 4.1441-1.1531 6.6412l-0.65384 4.5401-15.168 4.2115c-8.3424 2.3163-16.992 4.2108-19.221 4.2098-2.2294-9.2e-4 -8.7304-1.5767-14.446-3.5017s-10.977-3.5-11.691-3.5c-1.189 0-17.309 30.698-17.309 32.962 0 0.54228 4.0919 3.7373 9.093 7.1001 5.0012 3.3628 10.379 7.5369 11.95 9.2758 2.4592 2.7214 13.957 29.296 13.957 32.258 0 0.54271-2.0326 2.9816-4.5169 5.4197l-4.5169 4.433-14.233-4.8609c-7.8282-2.6735-15.995-6.0371-18.147-7.4746-2.1528-1.4375-6.4037-5.9888-9.4463-10.114-3.0427-4.1251-6.3798-8.4675-7.4158-9.6498l-1.8837-2.1496-16.67 8.5567c-9.1685 4.7062-16.822 8.6758-17.008 8.8213-0.1861 0.14555 1.5014 5.2849 3.75 11.421 2.2486 6.1358 4.0884 12.911 4.0884 15.056 0 3.5102-7.203 31.481-8.4205 32.698-0.63408 0.63409-8.3711 2.1451-11.279 2.2026-1.3562 0.0269-3.1147-1.2021-4.588-3.2064zm-12.713-121.8c12.891-2.0557 26.473-11.074 32.712-21.72 15.529-26.499 1.0736-59.798-29.405-67.737-18.806-4.8984-39.744 2.9288-50.36 18.826-20.175 30.213 0.99414 69.504 38.553 71.558 1.1 0.0601 4.925-0.3571 8.5-0.92721zm127.81 1.3686c0.72187-0.28887 1.5844-0.25334 1.9167 0.079 0.33229 0.33229-0.25834 0.56864-1.3125 0.52522-1.165-0.048-1.4019-0.28494-0.60417-0.60417zm-11.562-52.006c0.9625-0.25153 2.5375-0.25153 3.5 0s0.175 0.45732-1.75 0.45732-2.7125-0.20579-1.75-0.45732zm18.75-37.688c0-0.20766 0.7875-0.99516 1.75-1.75 1.5861-1.2439 1.6214-1.2085 0.37755 0.37755-1.3064 1.6658-2.1276 2.1955-2.1276 1.3724zm-61.563-43.872-2.9371-3.25 3.25 2.9371c3.0294 2.7378 3.7096 3.5629 2.9371 3.5629-0.1721 0-1.6346-1.4625-3.25-3.25zm43.313-2.4123c0.6875-0.27741 1.8125-0.27741 2.5 0 0.6875 0.27742 0.125 0.50439-1.25 0.50439s-1.9375-0.22697-1.25-0.50439zm-35.592-30.338c0-1.375 0.22698-1.9375 0.50439-1.25s0.27741 1.8125 0 2.5-0.50439 0.125-0.50439-1.25zm-231.35-78.683c0.72188-0.28887 1.5844-0.25334 1.9167 0.078947 0.33229 0.33229-0.25833 0.56864-1.3125 0.52522-1.1649-0.047984-1.4019-0.28494-0.60417-0.60417zm26.938 0.020833c0.6875-0.27741 1.8125-0.27741 2.5 0s0.125 0.50439-1.25 0.50439-1.9375-0.22697-1.25-0.50439z" fill="#f1cf24"/><path d="m247.85 368.9c-17.69-24.93-18.709-27.231-18.729-42.296l-0.0119-9.0461-14.25-2.0821c-7.8375-1.1452-14.364-1.9851-14.504-1.8665-0.13975 0.11859-1.3849 4.0013-2.767 8.6282-3.7574 12.579-6.3427 16.007-20.494 27.18-6.8667 5.4215-13.409 10.311-14.538 10.866-1.6347 0.80294-3.9565 0.13634-11.397-3.2722l-9.3444-4.2806 0.57449-18.231c0.65899-20.913 1.2232-22.887 9.8789-34.563l5.1576-6.9572-20.176-20.176-7.3426 5.5265c-12.017 9.0445-13.847 9.5785-35.519 10.365l-18.779 0.68116-9.5559-18.419 11.424-14.247c12.806-15.97 15.264-17.838 28.95-21.99 8.5765-2.6019 8.8031-2.7489 8.2776-5.3722-0.29714-1.4834-1.242-6.7472-2.0997-11.697-0.8577-4.95-1.7787-10.012-2.0466-11.25-0.46785-2.1607-0.91307-2.2513-11.218-2.2826-7.6535-0.0233-12.165-0.54082-15.731-1.8046-4.5242-1.6034-31.789-18.204-32.93-20.049-0.66708-1.0794 2.1539-19.25 3.1284-20.151 0.44084-0.40758 8.0978-2.8158 17.015-5.3515 18.69-5.3146 23.834-5.6592 33.861-2.2687 13.38 4.5246 11.565 5.3443 18.41-8.3112 3.3084-6.5999 6.0095-12.344 6.0024-12.765-7e-3 -0.42096-3.2766-2.8884-7.2657-5.4832-12.03-7.8256-13.689-10.121-21.141-29.259l-6.6106-16.977 14.877-14.877 17.616 6.121c19.698 6.8445 22.586 8.694 30.257 19.381 2.4984 3.4804 4.8758 6.698 5.2832 7.15 0.55065 0.61105 23.871-10.081 25.813-11.835 0.17377-0.15696-1.0244-4.2682-2.6627-9.1361-4.6829-13.915-4.6581-15.513 0.53145-34.331 2.5058-9.0861 4.953-17.018 5.4381-17.625 1.0074-1.2624 18.037-3.9311 20.081-3.1468 0.74123 0.28444 5.8817 6.9825 11.423 14.885 11.329 16.155 12.373 18.915 12.373 32.702 0 10.418-1.7857 9.136 16.325 11.725 6.6858 0.9557 12.158 1.3101 12.59 0.81554 0.42063-0.48114 1.8063-4.4748 3.0793-8.8748 3.4912-12.067 6.0098-15.31 21.092-27.153 7.3776-5.7932 13.927-10.746 14.554-11.005s5.3055 1.6198 10.396 4.1764l9.2555 4.6484-0.70716 18.548c-0.80066 21.001-1.3727 22.963-9.9412 34.098-2.5541 3.3192-4.6438 6.464-4.6438 6.9883 0 0.52434 4.5369 5.308 10.082 10.63 6.7785 6.5062 10.465 9.3873 11.25 8.793 17.87-13.525 18.423-13.748 36.216-14.606 7.6737-0.36992 16.202-0.91176 18.952-1.2041l5-0.5315 4.8931 9.2144c5.7384 10.806 6.5171 8.1984-7.6676 25.68-11.195 13.796-14.279 16.057-27.527 20.18-10.047 3.1262-9.3947 1.0658-6.1066 19.293l2.1197 11.75 10.644 0.0239c5.8542 0.0131 12.312 0.41131 14.35 0.88486 2.6205 0.60875 30.209 17.005 34.501 20.504 0.2545 0.2075-2.6735 19.887-3.0087 20.222-0.13187 0.13187-8.2086 2.4771-17.948 5.2116-16.716 4.6931-18.088 4.9234-24.48 4.109-3.724-0.47458-9.4289-1.7836-12.677-2.909-3.2486-1.1254-6.5076-2.0461-7.2423-2.0461-1.0253 0-13.351 22.496-13.351 24.367 0 0.21886 3.0375 2.3448 6.75 4.7242 11.788 7.5551 14.407 11.177 21.89 30.266l6.6139 16.872-14.818 14.818-17.424-6.0726c-19.735-6.8778-22.732-8.8074-30.992-19.948-2.8652-3.8649-5.6327-7.027-6.1502-7.027-0.87395 0-20.895 9.9904-23.567 11.76-0.8883 0.58822-0.31017 3.3657 2.2411 10.766 1.891 5.4855 3.4422 11.725 3.4471 13.865 8e-3 3.3088-8.4372 36.285-9.6129 37.538-0.53531 0.57027-15.159 2.9509-18.54 3.0182-2.1513 0.0428-3.5133-1.1464-7.0972-6.197zm16.049-0.66652c2.3593-0.45618 4.5148-1.0545 4.7899-1.3297 1.2175-1.2174 8.4205-29.188 8.4205-32.698 0-2.1451-1.8398-8.9204-4.0884-15.056-2.2486-6.1358-3.9361-11.275-3.75-11.421 0.18611-0.14555 7.8399-4.1152 17.008-8.8213l16.67-8.5567 1.8837 2.1496c1.036 1.1823 4.3731 5.5247 7.4158 9.6498 3.0426 4.1251 7.2935 8.6763 9.4463 10.114 2.1528 1.4375 10.319 4.8011 18.147 7.4746l14.233 4.8609 4.5169-4.433c2.4843-2.4381 4.5169-4.877 4.5169-5.4197 0-2.9626-11.498-29.537-13.957-32.258-1.5714-1.7389-6.9489-5.913-11.95-9.2758-5.0012-3.3628-9.093-6.5578-9.093-7.1001 0-2.2642 16.12-32.962 17.309-32.962 0.71369 0 5.9745 1.575 11.691 3.5s12.217 3.5008 14.446 3.5017c2.2294 9.3e-4 10.879-1.8935 19.221-4.2098l15.168-4.2115 0.65384-4.5401c0.35961-2.4971 0.8785-5.4856 1.1531-6.6412 0.42425-1.7854-1.5298-3.3907-13.006-10.685-7.428-4.7211-15.222-9.0606-17.321-9.6434-2.0986-0.58275-9.2547-1.0621-15.902-1.0651l-12.087-6e-3 -3.2158-18.147c-1.7687-9.9811-2.8546-18.48-2.4133-18.887 0.44138-0.4066 5.0775-1.9623 10.303-3.4571 13.86-3.9654 16.545-5.8582 26.955-19.006 5.009-6.3262 9.3603-12.161 9.6695-12.967 0.3092-0.80574-0.8497-3.9327-2.5753-6.9488l-3.1375-5.4838-15.706 0.56735c-18.546 0.66992-20.36 1.2652-33.36 10.944l-8.8605 6.5973-11.743-11.004c-6.4586-6.052-12.762-12.098-14.007-13.435l-2.2638-2.4314 6.5955-8.744c10.062-13.339 10.384-14.351 10.41-32.639l0.022-15.542-5.5222-2.7083c-3.0372-1.4896-5.9516-2.7083-6.4764-2.7083-1.8727 0-25.516 19.316-27.392 22.379-1.0517 1.7168-3.3633 7.8464-5.1369 13.621-2.0521 6.682-3.7728 10.609-4.7321 10.801-1.7536 0.35001-35.593-4.5913-36.877-5.3849-0.47519-0.29369-0.86399-5.7979-0.86399-12.232s-0.41543-13.146-0.92317-14.916c-0.50774-1.7704-5.061-9.0933-10.118-16.273-6.6652-9.4624-9.6442-12.924-10.827-12.581-0.89736 0.26006-3.7746 0.77539-6.3939 1.1452-2.6193 0.36979-4.9917 1.0436-5.2722 1.4973-1.3186 2.1336-8.4644 29.354-8.4554 32.21 6e-3 1.779 1.6249 7.7346 3.5986 13.235s3.797 10.9 4.0518 12c0.39742 1.7159-1.8906 3.172-16.106 10.25-9.1133 4.5375-16.943 8.25-17.4 8.25-0.45643 0-3.6859-3.9375-7.1767-8.75-3.4908-4.8125-7.7904-9.9895-9.5547-11.505-2.0004-1.7176-9.0311-4.795-18.677-8.175l-15.469-5.4205-9.5316 9.6771 5.7538 14.836c6.628 17.091 7.8327 18.653 21.144 27.431l9.2657 6.1098-8.4884 16.955c-7.789 15.558-8.671 16.899-10.704 16.283-1.2188-0.36959-6.3021-1.9667-11.296-3.5492-12.767-4.0454-16.377-3.9306-33.521 1.0661l-14.601 4.2554-0.97723 6.539-0.97723 6.539 13.078 8.5465c15.973 10.439 19.024 11.374 34.27 10.503 6.2191-0.3552 11.307-0.27154 11.307 0.1859s1.4046 8.8715 3.1212 18.698c1.7167 9.8264 2.9201 18.067 2.6743 18.313s-5.1379 1.8734-10.871 3.6169-12.106 4.2236-14.16 5.5114c-2.0549 1.2878-8.0909 7.8226-13.413 14.522l-9.677 12.18 5.8264 11.131 16.204-0.12297c19.147-0.14532 20.314-0.49233 33.101-9.8426 4.915-3.5939 9.2693-6.5344 9.6762-6.5344 0.77599 0 26.819 24.763 27.291 25.951 0.1499 0.37656-2.5999 4.4928-6.1107 9.1472-10.098 13.388-9.9892 13.059-10.472 31.579l-0.42148 16.177 12.396 6.2574 3.6677-2.7548c12.958-9.7328 22.169-17.629 23.931-20.516 1.1216-1.8376 3.4321-8.027 5.1344-13.754 1.7023-5.7273 3.2109-10.529 3.3524-10.67 0.24251-0.24251 28.484 3.7995 35.5 5.0808l3.25 0.59358 0.0439 12.205c0.0264 7.3357 0.55976 13.648 1.337 15.823 1.1069 3.0975 6.6625 11.476 16.332 24.631 2.5425 3.459 3.8411 3.7325 11.077 2.3335z" fill="#020203"/></g></g></svg>
